<?xml version="1.0" standalone="no"?>
<!DOCTYPE svg PUBLIC "-//W3C//DTD SVG 20010904//EN"
 "http://www.w3.org/TR/2001/REC-SVG-20010904/DTD/svg10.dtd">
<svg version="1.0" xmlns="http://www.w3.org/2000/svg"
 width="526.000000pt" height="526.000000pt" viewBox="0 0 526.000000 526.000000"
 preserveAspectRatio="xMidYMid meet">
<metadata>
Created by potrace 1.11, written by Peter Selinger 2001-2013
</metadata>
<g transform="translate(0.000000,526.000000) scale(0.100000,-0.100000)"
fill="#000000" stroke="none">
<path d="M5252 4880 c0 -14 2 -19 5 -12 2 6 2 18 0 25 -3 6 -5 1 -5 -13z"/>
<path d="M5253 4800 c0 -30 2 -43 4 -27 2 15 2 39 0 55 -2 15 -4 2 -4 -28z"/>
<path d="M5252 4720 c0 -14 2 -19 5 -12 2 6 2 18 0 25 -3 6 -5 1 -5 -13z"/>
<path d="M5253 4640 c0 -30 2 -43 4 -27 2 15 2 39 0 55 -2 15 -4 2 -4 -28z"/>
<path d="M5252 4560 c0 -14 2 -19 5 -12 2 6 2 18 0 25 -3 6 -5 1 -5 -13z"/>
<path d="M5253 4480 c0 -30 2 -43 4 -27 2 15 2 39 0 55 -2 15 -4 2 -4 -28z"/>
<path d="M2520 4424 c-141 -54 -198 -74 -250 -92 -8 -3 -18 -4 -22 -4 -5 1 -8
-2 -8 -8 0 -5 -3 -9 -7 -8 -5 0 -17 -2 -28 -6 -11 -4 -33 -12 -50 -18 -16 -6
-43 -16 -60 -23 -33 -13 -55 -21 -331 -124 -104 -39 -193 -71 -197 -71 -4 0
-26 -9 -50 -19 -50 -23 -235 -92 -259 -96 -9 -2 -26 -8 -36 -14 -11 -6 -60
-25 -109 -42 -48 -18 -92 -36 -98 -40 -5 -5 -15 -9 -23 -9 -8 0 -56 -16 -105
-36 -50 -19 -99 -36 -109 -37 -27 -2 -31 -38 -15 -142 7 -44 16 -115 22 -185
2 -25 6 -61 9 -81 3 -19 7 -64 11 -100 3 -35 8 -75 10 -89 2 -14 6 -54 10 -90
6 -68 11 -109 19 -175 3 -22 9 -74 15 -115 5 -41 9 -82 9 -90 0 -8 3 -37 6
-65 4 -27 9 -68 11 -90 3 -22 7 -56 9 -75 3 -19 8 -69 12 -110 3 -41 8 -84 10
-95 4 -19 7 -49 19 -167 6 -50 11 -96 21 -178 2 -19 6 -58 9 -86 2 -28 6 -64
9 -80 3 -16 8 -65 11 -108 3 -44 8 -82 10 -86 2 -3 6 -37 10 -75 14 -156 6
-142 115 -196 36 -18 80 -43 98 -56 17 -13 32 -21 32 -18 0 3 35 -13 78 -36
42 -23 102 -55 132 -71 30 -17 116 -62 190 -101 74 -39 158 -84 185 -98 28
-15 104 -55 170 -89 66 -35 122 -65 125 -69 3 -3 48 -28 100 -54 52 -26 124
-64 160 -84 88 -49 198 -103 210 -103 5 0 75 35 157 78 81 42 175 91 208 107
33 17 62 32 65 35 3 3 70 38 150 78 80 40 174 88 210 106 36 19 79 41 95 49
80 38 221 113 225 119 3 3 18 10 33 13 15 4 27 11 27 16 0 5 6 9 14 9 7 0 66
29 131 65 64 35 127 67 138 71 18 5 91 44 157 83 8 5 14 14 13 19 -2 6 4 66
13 134 8 68 17 143 19 168 2 25 7 70 10 100 8 69 13 111 19 175 3 28 8 68 11
90 2 22 7 60 10 85 3 25 7 65 10 90 3 25 8 68 10 95 3 28 9 88 15 135 6 47 13
105 15 130 4 45 11 102 20 170 3 19 7 64 11 100 3 36 8 76 9 90 2 14 6 52 9
85 3 33 8 74 11 90 2 17 7 62 10 100 4 39 8 77 10 85 2 8 7 40 10 70 13 129
15 147 20 185 7 58 16 145 20 183 2 25 -2 35 -18 44 -12 6 -22 10 -22 9 0 -2
-17 4 -39 13 -21 9 -48 18 -60 20 -11 2 -37 11 -56 19 -19 9 -60 24 -90 36
-280 102 -397 143 -407 144 -7 0 -13 3 -13 6 0 4 -21 13 -47 21 -27 7 -79 26
-118 42 -38 16 -72 29 -75 29 -19 0 -50 13 -50 21 0 5 -4 7 -8 4 -9 -5 -128
35 -166 56 -11 7 -30 13 -41 15 -19 3 -59 16 -100 33 -11 5 -85 32 -165 61
-80 28 -156 56 -170 62 -14 6 -31 9 -37 8 -7 -1 -13 3 -13 9 0 5 -9 10 -19 10
-10 0 -51 14 -89 30 -39 17 -77 30 -84 29 -7 0 -42 -12 -78 -25z"/>
<path d="M5252 4400 c0 -14 2 -19 5 -12 2 6 2 18 0 25 -3 6 -5 1 -5 -13z"/>
<path d="M5253 4320 c0 -30 2 -43 4 -27 2 15 2 39 0 55 -2 15 -4 2 -4 -28z"/>
<path d="M5252 4240 c0 -14 2 -19 5 -12 2 6 2 18 0 25 -3 6 -5 1 -5 -13z"/>
<path d="M5253 4160 c0 -30 2 -43 4 -27 2 15 2 39 0 55 -2 15 -4 2 -4 -28z"/>
<path d="M5252 4080 c0 -14 2 -19 5 -12 2 6 2 18 0 25 -3 6 -5 1 -5 -13z"/>
<path d="M5253 4000 c0 -30 2 -43 4 -27 2 15 2 39 0 55 -2 15 -4 2 -4 -28z"/>
<path d="M5252 3920 c0 -14 2 -19 5 -12 2 6 2 18 0 25 -3 6 -5 1 -5 -13z"/>
<path d="M5253 3840 c0 -30 2 -43 4 -27 2 15 2 39 0 55 -2 15 -4 2 -4 -28z"/>
<path d="M5252 3760 c0 -14 2 -19 5 -12 2 6 2 18 0 25 -3 6 -5 1 -5 -13z"/>
<path d="M5253 3680 c0 -30 2 -43 4 -27 2 15 2 39 0 55 -2 15 -4 2 -4 -28z"/>
<path d="M5252 3600 c0 -14 2 -19 5 -12 2 6 2 18 0 25 -3 6 -5 1 -5 -13z"/>
<path d="M5253 3520 c0 -30 2 -43 4 -27 2 15 2 39 0 55 -2 15 -4 2 -4 -28z"/>
<path d="M5252 3440 c0 -14 2 -19 5 -12 2 6 2 18 0 25 -3 6 -5 1 -5 -13z"/>
<path d="M5253 3360 c0 -30 2 -43 4 -27 2 15 2 39 0 55 -2 15 -4 2 -4 -28z"/>
<path d="M5252 3280 c0 -14 2 -19 5 -12 2 6 2 18 0 25 -3 6 -5 1 -5 -13z"/>
<path d="M5253 3200 c0 -30 2 -43 4 -27 2 15 2 39 0 55 -2 15 -4 2 -4 -28z"/>
<path d="M5252 3120 c0 -14 2 -19 5 -12 2 6 2 18 0 25 -3 6 -5 1 -5 -13z"/>
<path d="M5253 3040 c0 -30 2 -43 4 -27 2 15 2 39 0 55 -2 15 -4 2 -4 -28z"/>
<path d="M5252 2960 c0 -14 2 -19 5 -12 2 6 2 18 0 25 -3 6 -5 1 -5 -13z"/>
<path d="M5253 2880 c0 -30 2 -43 4 -27 2 15 2 39 0 55 -2 15 -4 2 -4 -28z"/>
<path d="M5252 2800 c0 -14 2 -19 5 -12 2 6 2 18 0 25 -3 6 -5 1 -5 -13z"/>
<path d="M5253 2720 c0 -30 2 -43 4 -27 2 15 2 39 0 55 -2 15 -4 2 -4 -28z"/>
<path d="M5252 2640 c0 -14 2 -19 5 -12 2 6 2 18 0 25 -3 6 -5 1 -5 -13z"/>
<path d="M5253 2560 c0 -30 2 -43 4 -27 2 15 2 39 0 55 -2 15 -4 2 -4 -28z"/>
<path d="M5252 2480 c0 -14 2 -19 5 -12 2 6 2 18 0 25 -3 6 -5 1 -5 -13z"/>
<path d="M5253 2400 c0 -30 2 -43 4 -27 2 15 2 39 0 55 -2 15 -4 2 -4 -28z"/>
<path d="M5252 2320 c0 -14 2 -19 5 -12 2 6 2 18 0 25 -3 6 -5 1 -5 -13z"/>
<path d="M5253 2240 c0 -30 2 -43 4 -27 2 15 2 39 0 55 -2 15 -4 2 -4 -28z"/>
<path d="M5252 2160 c0 -14 2 -19 5 -12 2 6 2 18 0 25 -3 6 -5 1 -5 -13z"/>
<path d="M5253 2080 c0 -30 2 -43 4 -27 2 15 2 39 0 55 -2 15 -4 2 -4 -28z"/>
<path d="M5252 2000 c0 -14 2 -19 5 -12 2 6 2 18 0 25 -3 6 -5 1 -5 -13z"/>
<path d="M5253 1920 c0 -30 2 -43 4 -27 2 15 2 39 0 55 -2 15 -4 2 -4 -28z"/>
<path d="M5252 1840 c0 -14 2 -19 5 -12 2 6 2 18 0 25 -3 6 -5 1 -5 -13z"/>
<path d="M5253 1760 c0 -30 2 -43 4 -27 2 15 2 39 0 55 -2 15 -4 2 -4 -28z"/>
<path d="M5252 1680 c0 -14 2 -19 5 -12 2 6 2 18 0 25 -3 6 -5 1 -5 -13z"/>
<path d="M5253 1600 c0 -30 2 -43 4 -27 2 15 2 39 0 55 -2 15 -4 2 -4 -28z"/>
<path d="M5252 1520 c0 -14 2 -19 5 -12 2 6 2 18 0 25 -3 6 -5 1 -5 -13z"/>
<path d="M5253 1440 c0 -30 2 -43 4 -27 2 15 2 39 0 55 -2 15 -4 2 -4 -28z"/>
<path d="M5252 1360 c0 -14 2 -19 5 -12 2 6 2 18 0 25 -3 6 -5 1 -5 -13z"/>
<path d="M5253 1280 c0 -30 2 -43 4 -27 2 15 2 39 0 55 -2 15 -4 2 -4 -28z"/>
<path d="M5252 1200 c0 -14 2 -19 5 -12 2 6 2 18 0 25 -3 6 -5 1 -5 -13z"/>
<path d="M5253 1120 c0 -30 2 -43 4 -27 2 15 2 39 0 55 -2 15 -4 2 -4 -28z"/>
<path d="M5252 1040 c0 -14 2 -19 5 -12 2 6 2 18 0 25 -3 6 -5 1 -5 -13z"/>
<path d="M5253 960 c0 -30 2 -43 4 -27 2 15 2 39 0 55 -2 15 -4 2 -4 -28z"/>
<path d="M5252 880 c0 -14 2 -19 5 -12 2 6 2 18 0 25 -3 6 -5 1 -5 -13z"/>
<path d="M5253 800 c0 -30 2 -43 4 -27 2 15 2 39 0 55 -2 15 -4 2 -4 -28z"/>
<path d="M5252 720 c0 -14 2 -19 5 -12 2 6 2 18 0 25 -3 6 -5 1 -5 -13z"/>
<path d="M5253 640 c0 -30 2 -43 4 -27 2 15 2 39 0 55 -2 15 -4 2 -4 -28z"/>
<path d="M5252 560 c0 -14 2 -19 5 -12 2 6 2 18 0 25 -3 6 -5 1 -5 -13z"/>
<path d="M5253 480 c0 -30 2 -43 4 -27 2 15 2 39 0 55 -2 15 -4 2 -4 -28z"/>
<path d="M5252 390 c0 -19 2 -27 5 -17 2 9 2 25 0 35 -3 9 -5 1 -5 -18z"/>
</g>
</svg>
